<?xml version="1.0" encoding="UTF-8" standalone="no"?>
<!-- Created with Inkscape (http://www.inkscape.org/) -->

<svg
   xmlns:dc="http://purl.org/dc/elements/1.1/"
   xmlns:cc="http://creativecommons.org/ns#"
   xmlns:rdf="http://www.w3.org/1999/02/22-rdf-syntax-ns#"
   xmlns:svg="http://www.w3.org/2000/svg"
   xmlns="http://www.w3.org/2000/svg"
   xmlns:sodipodi="http://sodipodi.sourceforge.net/DTD/sodipodi-0.dtd"
   xmlns:inkscape="http://www.inkscape.org/namespaces/inkscape"
   width="219.64337mm"
   height="127.86813mm"
   viewBox="0 0 778.26392 453.07603"
   id="svg2"
   version="1.1"
   inkscape:version="0.91 r13725"
   sodipodi:docname="won_app.svg">
  <defs
     id="defs4">
    <marker
       inkscape:isstock="true"
       style="overflow:visible"
       id="marker9247"
       refX="0"
       refY="0"
       orient="auto"
       inkscape:stockid="Arrow1Lend">
      <path
         transform="matrix(-0.8,0,0,-0.8,-10,0)"
         style="fill:#000000;fill-opacity:1;fill-rule:evenodd;stroke:#000000;stroke-width:1pt;stroke-opacity:1"
         d="M 0,0 5,-5 -12.5,0 5,5 0,0 Z"
         id="path9249"
         inkscape:connector-curvature="0" />
    </marker>
    <marker
       inkscape:stockid="Arrow1Lend"
       orient="auto"
       refY="0"
       refX="0"
       id="marker8863"
       style="overflow:visible"
       inkscape:isstock="true"
       inkscape:collect="always">
      <path
         id="path8865"
         d="M 0,0 5,-5 -12.5,0 5,5 0,0 Z"
         style="fill:#000000;fill-opacity:1;fill-rule:evenodd;stroke:#000000;stroke-width:1pt;stroke-opacity:1"
         transform="matrix(-0.8,0,0,-0.8,-10,0)"
         inkscape:connector-curvature="0" />
    </marker>
    <marker
       inkscape:stockid="Arrow1Lstart"
       orient="auto"
       refY="0"
       refX="0"
       id="marker8775"
       style="overflow:visible"
       inkscape:isstock="true">
      <path
         id="path8777"
         d="M 0,0 5,-5 -12.5,0 5,5 0,0 Z"
         style="fill:#000000;fill-opacity:1;fill-rule:evenodd;stroke:#000000;stroke-width:1pt;stroke-opacity:1"
         transform="matrix(0.8,0,0,0.8,10,0)"
         inkscape:connector-curvature="0" />
    </marker>
    <marker
       inkscape:isstock="true"
       style="overflow:visible"
       id="marker6123"
       refX="0"
       refY="0"
       orient="auto"
       inkscape:stockid="Arrow1Lend">
      <path
         transform="matrix(-0.8,0,0,-0.8,-10,0)"
         style="fill:#000000;fill-opacity:1;fill-rule:evenodd;stroke:#000000;stroke-width:1pt;stroke-opacity:1"
         d="M 0,0 5,-5 -12.5,0 5,5 0,0 Z"
         id="path6125"
         inkscape:connector-curvature="0" />
    </marker>
    <marker
       inkscape:isstock="true"
       style="overflow:visible"
       id="marker6047"
       refX="0"
       refY="0"
       orient="auto"
       inkscape:stockid="Arrow1Lstart">
      <path
         transform="matrix(0.8,0,0,0.8,10,0)"
         style="fill:#000000;fill-opacity:1;fill-rule:evenodd;stroke:#000000;stroke-width:1pt;stroke-opacity:1"
         d="M 0,0 5,-5 -12.5,0 5,5 0,0 Z"
         id="path6049"
         inkscape:connector-curvature="0" />
    </marker>
    <marker
       inkscape:stockid="Arrow1Lend"
       orient="auto"
       refY="0"
       refX="0"
       id="marker5783"
       style="overflow:visible"
       inkscape:isstock="true"
       inkscape:collect="always">
      <path
         id="path5785"
         d="M 0,0 5,-5 -12.5,0 5,5 0,0 Z"
         style="fill:#000000;fill-opacity:1;fill-rule:evenodd;stroke:#000000;stroke-width:1pt;stroke-opacity:1"
         transform="matrix(-0.8,0,0,-0.8,-10,0)"
         inkscape:connector-curvature="0" />
    </marker>
    <marker
       inkscape:stockid="Arrow1Lstart"
       orient="auto"
       refY="0"
       refX="0"
       id="marker5719"
       style="overflow:visible"
       inkscape:isstock="true"
       inkscape:collect="always">
      <path
         id="path5721"
         d="M 0,0 5,-5 -12.5,0 5,5 0,0 Z"
         style="fill:#000000;fill-opacity:1;fill-rule:evenodd;stroke:#000000;stroke-width:1pt;stroke-opacity:1"
         transform="matrix(0.8,0,0,0.8,10,0)"
         inkscape:connector-curvature="0" />
    </marker>
    <marker
       inkscape:isstock="true"
       style="overflow:visible"
       id="marker5299"
       refX="0"
       refY="0"
       orient="auto"
       inkscape:stockid="Arrow1Lend"
       inkscape:collect="always">
      <path
         transform="matrix(-0.8,0,0,-0.8,-10,0)"
         style="fill:#000000;fill-opacity:1;fill-rule:evenodd;stroke:#000000;stroke-width:1pt;stroke-opacity:1"
         d="M 0,0 5,-5 -12.5,0 5,5 0,0 Z"
         id="path5301"
         inkscape:connector-curvature="0" />
    </marker>
    <marker
       inkscape:isstock="true"
       style="overflow:visible"
       id="marker5247"
       refX="0"
       refY="0"
       orient="auto"
       inkscape:stockid="Arrow1Lstart"
       inkscape:collect="always">
      <path
         transform="matrix(0.8,0,0,0.8,10,0)"
         style="fill:#000000;fill-opacity:1;fill-rule:evenodd;stroke:#000000;stroke-width:1pt;stroke-opacity:1"
         d="M 0,0 5,-5 -12.5,0 5,5 0,0 Z"
         id="path5249"
         inkscape:connector-curvature="0" />
    </marker>
    <marker
       inkscape:stockid="Arrow1Lend"
       orient="auto"
       refY="0"
       refX="0"
       id="marker4995"
       style="overflow:visible"
       inkscape:isstock="true"
       inkscape:collect="always">
      <path
         id="path4997"
         d="M 0,0 5,-5 -12.5,0 5,5 0,0 Z"
         style="fill:#000000;fill-opacity:1;fill-rule:evenodd;stroke:#000000;stroke-width:1pt;stroke-opacity:1"
         transform="matrix(-0.8,0,0,-0.8,-10,0)"
         inkscape:connector-curvature="0" />
    </marker>
    <marker
       inkscape:stockid="Arrow1Lstart"
       orient="auto"
       refY="0"
       refX="0"
       id="marker4955"
       style="overflow:visible"
       inkscape:isstock="true"
       inkscape:collect="always">
      <path
         id="path4957"
         d="M 0,0 5,-5 -12.5,0 5,5 0,0 Z"
         style="fill:#000000;fill-opacity:1;fill-rule:evenodd;stroke:#000000;stroke-width:1pt;stroke-opacity:1"
         transform="matrix(0.8,0,0,0.8,10,0)"
         inkscape:connector-curvature="0" />
    </marker>
    <marker
       inkscape:isstock="true"
       style="overflow:visible"
       id="marker4559"
       refX="0"
       refY="0"
       orient="auto"
       inkscape:stockid="Arrow1Lend"
       inkscape:collect="always">
      <path
         transform="matrix(-0.8,0,0,-0.8,-10,0)"
         style="fill:#000000;fill-opacity:1;fill-rule:evenodd;stroke:#000000;stroke-width:1pt;stroke-opacity:1"
         d="M 0,0 5,-5 -12.5,0 5,5 0,0 Z"
         id="path4561"
         inkscape:connector-curvature="0" />
    </marker>
    <marker
       inkscape:isstock="true"
       style="overflow:visible"
       id="marker4531"
       refX="0"
       refY="0"
       orient="auto"
       inkscape:stockid="Arrow1Lstart"
       inkscape:collect="always">
      <path
         transform="matrix(0.8,0,0,0.8,10,0)"
         style="fill:#000000;fill-opacity:1;fill-rule:evenodd;stroke:#000000;stroke-width:1pt;stroke-opacity:1"
         d="M 0,0 5,-5 -12.5,0 5,5 0,0 Z"
         id="path4533"
         inkscape:connector-curvature="0" />
    </marker>
    <marker
       inkscape:stockid="Arrow1Lend"
       orient="auto"
       refY="0"
       refX="0"
       id="Arrow1Lend"
       style="overflow:visible"
       inkscape:isstock="true"
       inkscape:collect="always">
      <path
         id="path4224"
         d="M 0,0 5,-5 -12.5,0 5,5 0,0 Z"
         style="fill:#000000;fill-opacity:1;fill-rule:evenodd;stroke:#000000;stroke-width:1pt;stroke-opacity:1"
         transform="matrix(-0.8,0,0,-0.8,-10,0)"
         inkscape:connector-curvature="0" />
    </marker>
    <marker
       inkscape:stockid="Arrow1Lstart"
       orient="auto"
       refY="0"
       refX="0"
       id="Arrow1Lstart"
       style="overflow:visible"
       inkscape:isstock="true"
       inkscape:collect="always">
      <path
         id="path4221"
         d="M 0,0 5,-5 -12.5,0 5,5 0,0 Z"
         style="fill:#000000;fill-opacity:1;fill-rule:evenodd;stroke:#000000;stroke-width:1pt;stroke-opacity:1"
         transform="matrix(0.8,0,0,0.8,10,0)"
         inkscape:connector-curvature="0" />
    </marker>
  </defs>
  <sodipodi:namedview
     id="base"
     pagecolor="#ffffff"
     bordercolor="#666666"
     borderopacity="1.0"
     inkscape:pageopacity="0.0"
     inkscape:pageshadow="2"
     inkscape:zoom="0.49497475"
     inkscape:cx="292.65627"
     inkscape:cy="78.827191"
     inkscape:document-units="px"
     inkscape:current-layer="layer1"
     showgrid="false"
     inkscape:window-width="1366"
     inkscape:window-height="720"
     inkscape:window-x="0"
     inkscape:window-y="0"
     inkscape:window-maximized="1"
     fit-margin-top="0"
     fit-margin-left="0"
     fit-margin-right="0"
     fit-margin-bottom="0" />
  <metadata
     id="metadata7">
    <rdf:RDF>
      <cc:Work
         rdf:about="">
        <dc:format>image/svg+xml</dc:format>
        <dc:type
           rdf:resource="http://purl.org/dc/dcmitype/StillImage" />
        <dc:title></dc:title>
      </cc:Work>
    </rdf:RDF>
  </metadata>
  <g
     inkscape:label="Layer 1"
     inkscape:groupmode="layer"
     id="layer1"
     transform="translate(-39.132112,-158.11336)">
    <path
       style="opacity:1;fill:#ffffff;fill-opacity:1;fill-rule:nonzero;stroke:#000000;stroke-width:1.638695;stroke-miterlimit:4;stroke-dasharray:none;stroke-opacity:1"
       d="m 250.06319,158.93271 198.8992,0 0,77.6809 -198.8992,0 z"
       id="rect4136" />
    <g
       transform="translate(208.09142,125.25892)"
       style="font-style:normal;font-variant:normal;font-weight:normal;font-stretch:normal;font-size:40px;line-height:125%;font-family:Lekton;-inkscape-font-specification:Lekton;letter-spacing:0px;word-spacing:0px;fill:#000000;fill-opacity:1;stroke:none;stroke-width:1px;stroke-linecap:butt;stroke-linejoin:miter;stroke-opacity:1"
       id="flowRoot4138">
      <path
         d="m 65.608359,71.19 q -3.56,-0.88 -5.24,-2.52 -1.64,-1.68 -1.64,-4.84 0,-3.16 2.16,-4.92 2.2,-1.76 5.64,-1.76 3.44,0 7,1.24 l -0.56,2.04 q -3.32,-1.2 -6.12,-1.2 -2.76,0 -4.24,1.2 -1.48,1.16 -1.48,3.4 0,2.24 1.2,3.4 1.2,1.16 4.76,2.12 3.6,0.92 5.2,2.48 1.6,1.52 1.6,4.96 0,3.4 -2.32,5.4 -2.28,1.96 -5.92,1.96 -2.72,0 -6.88,-1.16 l 0.52,-2.04 q 4.08,1.12 6.56,1.12 2.48,0 4.08,-1.36 1.6,-1.4 1.6,-3.88 0,-2.48 -1.16,-3.64 -1.16,-1.16 -4.76,-2 z"
         style=""
         id="path11481" />
      <path
         d="m 79.248359,74.27 q 0,-4.6 1.88,-7.16 1.92,-2.6 5.56,-2.6 3.64,0 5.4,2.4 1.8,2.4 1.8,6.4 l -0.12,2 -12.24,0 q 0.2,3 1.6,4.88 1.4,1.84 3.84,1.84 2.48,0 5.8,-1.16 l 0.6,2 q -3.24,1.24 -6.08,1.24 -3.92,0 -6,-2.6 -2.04,-2.64 -2.04,-7.24 z m 7.6,-7.72 q -5.04,0 -5.32,6.76 l 10.08,0 q 0,-6.76 -4.76,-6.76 z"
         style=""
         id="path11483" />
      <path
         d="m 99.808359,83.75 0,-2 4.560001,0 0,-15 -4.560001,0 0,-2 6.680001,0 0.08,2.32 q 1.28,-0.8 3.6,-1.6 2.32,-0.8 4.08,-0.96 l 0.44,0 0,2.36 -0.44,0 q -1.64,0.12 -4.08,0.8 -2.4,0.68 -3.6,1.4 l 0,12.68 6.4,0 0,2 -13.160001,0 z"
         style=""
         id="path11485" />
      <path
         d="m 118.68836,64.75 2.4,0 5.24,17.08 0.72,0 5.04,-17.08 2.4,0 -5.8,19 -4,0 -6,-19 z"
         style=""
         id="path11487" />
      <path
         d="m 139.88836,83.75 0,-2 5.84,0 0,-15 -5.84,0 0,-2 7.96,0 0,17 5.84,0 0,2 -13.8,0 z m 5,-24.64 q 0,-0.8 0.44,-1.24 0.48,-0.44 1.28,-0.44 1.64,0 1.64,1.76 0,1.76 -1.64,1.72 -1.72,0 -1.72,-1.8 z"
         style=""
         id="path11489" />
      <path
         d="m 172.88836,65.39 -0.48,2.08 q -2.48,-0.88 -4.6,-0.88 -2.88,0 -4.32,2.04 -1.4,2 -1.4,5.6 0,3.6 1.44,5.72 1.44,2.08 4.28,2.08 1.92,0 4.8,-1.04 l 0.64,2 q -2.92,1.12 -5.4,1.12 -3.92,0 -6,-2.6 -2.08,-2.64 -2.08,-7.32 0,-4.68 2.04,-7.16 2.04,-2.52 6,-2.52 2.52,0 5.08,0.88 z"
         style=""
         id="path11491" />
      <path
         d="m 179.24836,74.27 q 0,-4.6 1.88,-7.16 1.92,-2.6 5.56,-2.6 3.64,0 5.4,2.4 1.8,2.4 1.8,6.4 l -0.12,2 -12.24,0 q 0.2,3 1.6,4.88 1.4,1.84 3.84,1.84 2.48,0 5.8,-1.16 l 0.6,2 q -3.24,1.24 -6.08,1.24 -3.92,0 -6,-2.6 -2.04,-2.64 -2.04,-7.24 z m 7.6,-7.72 q -5.04,0 -5.32,6.76 l 10.08,0 q 0,-6.76 -4.76,-6.76 z"
         style=""
         id="path11493" />
      <path
         d="m 199.68836,82.83 0.52,-2.08 q 3.96,1.32 6.12,1.32 2.16,0 3.32,-0.92 1.2,-0.96 1.2,-2.52 0,-1.56 -0.96,-2.28 -0.92,-0.76 -3.88,-1.44 -2.96,-0.68 -4.44,-1.96 -1.48,-1.2 -1.48,-3.6 0,-2.4 1.8,-3.64 1.84,-1.28 4.72,-1.28 2.88,0 6.24,1.28 l -0.56,1.88 q -3.4,-1.12 -5.48,-1.12 -2.08,0 -3.28,0.72 -1.2,0.8 -1.2,2.16 0,1.36 1.04,2.12 1.08,0.76 4.12,1.52 3.04,0.76 4.32,1.96 1.28,1.16 1.28,3.68 0,2.52 -1.72,4 -1.68,1.48 -4.8,1.48 -3.12,0 -6.88,-1.28 z"
         style=""
         id="path11495" />
    </g>
    <path
       style="opacity:1;fill:#ffffff;fill-opacity:1;fill-rule:nonzero;stroke:#000000;stroke-width:1.88956952;stroke-miterlimit:4;stroke-dasharray:none;stroke-opacity:1"
       d="m 40.076897,334.82468 265.318393,0 0,77.43002 -265.318393,0 z"
       id="rect4146" />
    <g
       transform="translate(-2.0203097,301.02546)"
       style="font-style:normal;font-variant:normal;font-weight:normal;font-stretch:normal;font-size:40px;line-height:125%;font-family:Lekton;-inkscape-font-specification:Lekton;letter-spacing:0px;word-spacing:0px;fill:#000000;fill-opacity:1;stroke:none;stroke-width:1px;stroke-linecap:butt;stroke-linejoin:miter;stroke-opacity:1"
       id="flowRoot4148">
      <path
         d="m 73.608359,81.03 0.52,2.04 q -3.52,1.04 -6.32,1.04 -4.6,0 -6.84,-3.16 -2.2,-3.2 -2.2,-10.28 0,-7.08 2.16,-10.28 2.16,-3.24 6.92,-3.24 2.92,0 6.08,1.24 l -0.64,2 q -2.88,-1.2 -5.44,-1.2 -3.56,0 -5.16,2.72 -1.56,2.68 -1.56,8.68 0,6 1.68,8.72 1.68,2.72 5.04,2.72 2.24,0 5.76,-1 z"
         style=""
         id="path11459" />
      <path
         d="m 78.808359,67.27 0,-2 3.88,0 0,-4.84 2.12,-0.4 0,5.24 9.16,0 0,2 -9.16,0 0,9.12 q 0,3.04 0.88,4.4 0.92,1.32 3.24,1.32 0.88,0 2.72,-0.28 1.84,-0.32 2.52,-0.56 l 0.48,1.96 q -0.76,0.28 -2.8,0.6 -2,0.32 -2.92,0.32 -3.6,0 -4.92,-1.88 -1.32,-1.92 -1.32,-5.8 l 0,-9.2 -3.88,0 z"
         style=""
         id="path11461" />
      <path
         d="m 99.808359,83.75 0,-2 4.560001,0 0,-15 -4.560001,0 0,-2 6.680001,0 0.08,2.32 q 1.28,-0.8 3.6,-1.6 2.32,-0.8 4.08,-0.96 l 0.44,0 0,2.36 -0.44,0 q -1.64,0.12 -4.08,0.8 -2.4,0.68 -3.6,1.4 l 0,12.68 6.4,0 0,2 -13.160001,0 z"
         style=""
         id="path11463" />
      <path
         d="m 120.36836,83.75 0,-2 6.12,0 0,-22.64 -5.96,0.04 -0.04,-1.96 8.12,-0.04 0,24.6 6.32,0 0,2 -14.56,0 z"
         style=""
         id="path11465" />
      <path
         d="m 159.68836,73.35 0,-1.84 5.68,0 0,-5.76 2,0 0,5.76 5.56,0 0,1.84 -5.56,0 0,5.8 -2,0 0,-5.8 -5.68,0 z"
         style=""
         id="path11467" />
      <path
         d="m 205.60836,71.19 q -3.56,-0.88 -5.24,-2.52 -1.64,-1.68 -1.64,-4.84 0,-3.16 2.16,-4.92 2.2,-1.76 5.64,-1.76 3.44,0 7,1.24 l -0.56,2.04 q -3.32,-1.2 -6.12,-1.2 -2.76,0 -4.24,1.2 -1.48,1.16 -1.48,3.4 0,2.24 1.2,3.4 1.2,1.16 4.76,2.12 3.6,0.92 5.2,2.48 1.6,1.52 1.6,4.96 0,3.4 -2.32,5.4 -2.28,1.96 -5.92,1.96 -2.72,0 -6.88,-1.16 l 0.52,-2.04 q 4.08,1.12 6.56,1.12 2.48,0 4.08,-1.36 1.6,-1.4 1.6,-3.88 0,-2.48 -1.16,-3.64 -1.16,-1.16 -4.76,-2 z"
         style=""
         id="path11469" />
      <path
         d="m 232.88836,65.39 -0.48,2.08 q -2.48,-0.88 -4.6,-0.88 -2.88,0 -4.32,2.04 -1.4,2 -1.4,5.6 0,3.6 1.44,5.72 1.44,2.08 4.28,2.08 1.92,0 4.8,-1.04 l 0.64,2 q -2.92,1.12 -5.4,1.12 -3.92,0 -6,-2.6 -2.08,-2.64 -2.08,-7.32 0,-4.68 2.04,-7.16 2.04,-2.52 6,-2.52 2.52,0 5.08,0.88 z"
         style=""
         id="path11471" />
      <path
         d="m 238.92836,74.31 q 0,-9.8 7.64,-9.8 7.64,0 7.64,9.8 0,9.8 -7.64,9.8 -7.64,0 -7.64,-9.8 z m 7.64,-7.72 q -5.36,0 -5.36,7.72 0,7.72 5.36,7.72 5.36,0 5.36,-7.72 0,-7.72 -5.36,-7.72 z"
         style=""
         id="path11473" />
      <path
         d="m 259.64836,91.43 0,-23.24 -0.36,-3.48 2,-0.24 0.36,2.16 q 2.92,-2.12 5.56,-2.12 3.56,0 5.52,2.6 1.96,2.6 1.96,7.16 0,4.56 -2.16,7.2 -2.16,2.64 -6,2.64 -2.24,0 -4.76,-1.08 l 0,8.4 -2.12,0 z m 12.76,-17.08 q 0,-3.56 -1.36,-5.64 -1.36,-2.12 -3.92,-2.12 -2.52,0 -5.36,2.28 l 0,12 q 0.84,0.4 2.28,0.8 1.48,0.36 2.4,0.36 2.84,0 4.4,-2.08 1.56,-2.08 1.56,-5.6 z"
         style=""
         id="path11475" />
      <path
         d="m 279.24836,74.27 q 0,-4.6 1.88,-7.16 1.92,-2.6 5.56,-2.6 3.64,0 5.4,2.4 1.8,2.4 1.8,6.4 l -0.12,2 -12.24,0 q 0.2,3 1.6,4.88 1.4,1.84 3.84,1.84 2.48,0 5.8,-1.16 l 0.6,2 q -3.24,1.24 -6.08,1.24 -3.92,0 -6,-2.6 -2.04,-2.64 -2.04,-7.24 z m 7.6,-7.72 q -5.04,0 -5.32,6.76 l 10.08,0 q 0,-6.76 -4.76,-6.76 z"
         style=""
         id="path11477" />
    </g>
    <path
       style="opacity:1;fill:#ffffff;fill-opacity:1;fill-rule:nonzero;stroke:#000000;stroke-width:1.92265368;stroke-miterlimit:4;stroke-dasharray:none;stroke-opacity:1"
       d="m 362.95645,336.86151 166.29036,0 0,127.90457 -166.29036,0 z"
       id="rect4156" />
    <g
       transform="translate(320.84271,303.04577)"
       style="font-style:normal;font-variant:normal;font-weight:normal;font-stretch:normal;font-size:40px;line-height:125%;font-family:Lekton;-inkscape-font-specification:Lekton;letter-spacing:0px;word-spacing:0px;fill:#000000;fill-opacity:1;stroke:none;stroke-width:1px;stroke-linecap:butt;stroke-linejoin:miter;stroke-opacity:1"
       id="flowRoot4158">
      <path
         d="m 65.208359,74.15 -3.68,0 0,9.6 -2.2,0 0,-26.2 5.88,0 q 4.8,0 7.08,1.84 2.32,1.8 2.32,6.28 0,4.48 -2.32,6.48 -2.32,2 -7.08,2 z m 0,-14.6 -3.68,0 0,12.6 3.68,0 q 3.68,0 5.36,-1.48 1.72,-1.48 1.72,-4.96 0,-3.48 -1.68,-4.8 -1.68,-1.36 -5.4,-1.36 z"
         style=""
         id="path11435" />
      <path
         d="m 85.288359,82.03 q 1.48,0 3.2,-0.92 1.76,-0.96 2.56,-1.76 l 0,-4.76 q -2.64,-0.2 -5.04,-0.2 -2.4,0 -3.6,1.04 -1.2,1 -1.2,2.72 0,3.88 4.08,3.88 z m -0.04,2.08 q -2.92,0 -4.6,-1.48 -1.68,-1.52 -1.68,-4.28 0,-2.76 1.84,-4.28 1.84,-1.56 4.88,-1.56 3.04,0 5.36,0.24 0,-3.56 -0.88,-4.84 -0.88,-1.32 -3.56,-1.32 -2.68,0 -6.32,1.28 l -0.6,-2 q 3.72,-1.36 6.72,-1.36 3.96,0 5.36,1.76 1.4,1.76 1.4,6.16 l 0,8.4 0.32,3.04 -2.04,0.2 -0.4,-2.4 q -0.92,0.8 -2.6,1.64 -1.68,0.8 -3.2,0.8 z"
         style=""
         id="path11437" />
      <path
         d="m 99.808359,83.75 0,-2 4.560001,0 0,-15 -4.560001,0 0,-2 6.680001,0 0.08,2.32 q 1.28,-0.8 3.6,-1.6 2.32,-0.8 4.08,-0.96 l 0.44,0 0,2.36 -0.44,0 q -1.64,0.12 -4.08,0.8 -2.4,0.68 -3.6,1.4 l 0,12.68 6.4,0 0,2 -13.160001,0 z"
         style=""
         id="path11439" />
      <path
         d="m 119.24836,74.27 q 0,-4.6 1.88,-7.16 1.92,-2.6 5.56,-2.6 3.64,0 5.4,2.4 1.8,2.4 1.8,6.4 l -0.12,2 -12.24,0 q 0.2,3 1.6,4.88 1.4,1.84 3.84,1.84 2.48,0 5.8,-1.16 l 0.6,2 q -3.24,1.24 -6.08,1.24 -3.92,0 -6,-2.6 -2.04,-2.64 -2.04,-7.24 z m 7.6,-7.72 q -5.04,0 -5.32,6.76 l 10.08,0 q 0,-6.76 -4.76,-6.76 z"
         style=""
         id="path11441" />
      <path
         d="m 141.64836,64.75 0.08,1.6 q 3.88,-1.84 6.44,-1.84 2.56,0 4,1.76 1.48,1.76 1.48,4.8 l 0,12.68 -2.12,0 0,-12.68 q 0,-1.96 -0.96,-3.24 -0.96,-1.24 -2.88,-1.24 -1.92,0 -5.96,1.76 l 0,15.4 -2.12,0 0,-19 2.04,0 z"
         style=""
         id="path11443" />
      <path
         d="m 158.80836,67.27 0,-2 3.88,0 0,-4.84 2.12,-0.4 0,5.24 9.16,0 0,2 -9.16,0 0,9.12 q 0,3.04 0.88,4.4 0.92,1.32 3.24,1.32 0.88,0 2.72,-0.28 1.84,-0.32 2.52,-0.56 l 0.48,1.96 q -0.76,0.28 -2.8,0.6 -2,0.32 -2.92,0.32 -3.6,0 -4.92,-1.88 -1.32,-1.92 -1.32,-5.8 l 0,-9.2 -3.88,0 z"
         style=""
         id="path11445" />
      <path
         d="m 65.608359,121.19 q -3.56,-0.88 -5.24,-2.52 -1.64,-1.68 -1.64,-4.84 0,-3.16 2.16,-4.92 2.2,-1.76 5.64,-1.76 3.44,0 7,1.24 l -0.56,2.04 q -3.32,-1.2 -6.12,-1.2 -2.76,0 -4.24,1.2 -1.48,1.16 -1.48,3.4 0,2.24 1.2,3.4 1.2,1.16 4.76,2.12 3.6,0.92 5.2,2.48 1.6,1.52 1.6,4.96 0,3.4 -2.32,5.4 -2.28,1.96 -5.92,1.96 -2.72,0 -6.88,-1.16 l 0.52,-2.04 q 4.08,1.12 6.56,1.12 2.48,0 4.08,-1.36 1.6,-1.4 1.6,-3.88 0,-2.48 -1.16,-3.64 -1.16,-1.16 -4.76,-2 z"
         style=""
         id="path11447" />
      <path
         d="m 92.888359,115.39 -0.48,2.08 q -2.48,-0.88 -4.6,-0.88 -2.88,0 -4.32,2.04 -1.4,2 -1.4,5.6 0,3.6 1.44,5.72 1.44,2.08 4.28,2.08 1.92,0 4.8,-1.04 l 0.64,2 q -2.92,1.12 -5.4,1.12 -3.92,0 -6,-2.6 -2.08,-2.64 -2.08,-7.32 0,-4.68 2.04,-7.16 2.04,-2.52 6,-2.52 2.52,0 5.08,0.88 z"
         style=""
         id="path11449" />
      <path
         d="m 98.928359,124.31 q 0,-9.8 7.640001,-9.8 7.64,0 7.64,9.8 0,9.8 -7.64,9.8 -7.640001,0 -7.640001,-9.8 z m 7.640001,-7.72 q -5.36,0 -5.36,7.72 0,7.72 5.36,7.72 5.36,0 5.36,-7.72 0,-7.72 -5.36,-7.72 z"
         style=""
         id="path11451" />
      <path
         d="m 119.64836,141.43 0,-23.24 -0.36,-3.48 2,-0.24 0.36,2.16 q 2.92,-2.12 5.56,-2.12 3.56,0 5.52,2.6 1.96,2.6 1.96,7.16 0,4.56 -2.16,7.2 -2.16,2.64 -6,2.64 -2.24,0 -4.76,-1.08 l 0,8.4 -2.12,0 z m 12.76,-17.08 q 0,-3.56 -1.36,-5.64 -1.36,-2.12 -3.92,-2.12 -2.52,0 -5.36,2.28 l 0,12 q 0.84,0.4 2.28,0.8 1.48,0.36 2.4,0.36 2.84,0 4.4,-2.08 1.56,-2.08 1.56,-5.6 z"
         style=""
         id="path11453" />
      <path
         d="m 139.24836,124.27 q 0,-4.6 1.88,-7.16 1.92,-2.6 5.56,-2.6 3.64,0 5.4,2.4 1.8,2.4 1.8,6.4 l -0.12,2 -12.24,0 q 0.2,3 1.6,4.88 1.4,1.84 3.84,1.84 2.48,0 5.8,-1.16 l 0.6,2 q -3.24,1.24 -6.08,1.24 -3.92,0 -6,-2.6 -2.04,-2.64 -2.04,-7.24 z m 7.6,-7.72 q -5.04,0 -5.32,6.76 l 10.08,0 q 0,-6.76 -4.76,-6.76 z"
         style=""
         id="path11455" />
    </g>
    <path
       style="opacity:1;fill:#ffffff;fill-opacity:1;fill-rule:nonzero;stroke:#000000;stroke-width:1.7649256;stroke-miterlimit:4;stroke-dasharray:none;stroke-opacity:1"
       d="m 585.41571,332.80295 231.09786,0 0,77.55467 -231.09786,0 z"
       id="rect4166" />
    <g
       transform="translate(543.38085,299.06608)"
       style="font-style:normal;font-variant:normal;font-weight:normal;font-stretch:normal;font-size:40px;line-height:125%;font-family:Lekton;-inkscape-font-specification:Lekton;letter-spacing:0px;word-spacing:0px;fill:#000000;fill-opacity:1;stroke:none;stroke-width:1px;stroke-linecap:butt;stroke-linejoin:miter;stroke-opacity:1"
       id="flowRoot4168">
      <path
         d="m 66.648359,60.07 q -5.48,0 -5.48,4.4 0,2.16 1.2,3.24 1.2,1.08 4.72,1.92 3.56,0.84 5.16,2.44 1.64,1.56 1.64,4.72 0,3.12 -1.96,5.04 -1.92,1.92 -5.04,2.2 l 0,3.4 -2,0 0,-3.36 q -2.72,-0.16 -6.12,-1.16 l 0.52,-2 q 3.88,1.16 6.4,1.16 2.56,0 4.2,-1.4 1.64,-1.44 1.64,-3.88 0,-2.44 -1.2,-3.44 -1.16,-1 -4.8,-1.88 -3.6,-0.88 -5.2,-2.4 -1.56,-1.52 -1.56,-4.44 0,-2.96 1.84,-4.6 1.84,-1.64 4.6,-1.92 l 0,-3.36 2.04,0 0,3.32 q 3.16,0.12 6.28,1.24 l -0.56,2 q -3.44,-1.24 -6.32,-1.24 z"
         style=""
         id="path11413" />
      <path
         d="m 79.808359,83.75 0,-2 4.56,0 0,-15 -4.56,0 0,-2 6.68,0 0.08,2.32 q 1.28,-0.8 3.6,-1.6 2.32,-0.8 4.08,-0.96 l 0.44,0 0,2.36 -0.44,0 q -1.64,0.12 -4.08,0.8 -2.4,0.68 -3.6,1.4 l 0,12.68 6.4,0 0,2 -13.16,0 z"
         style=""
         id="path11415" />
      <path
         d="m 98.928359,74.31 q 0,-9.8 7.640001,-9.8 7.64,0 7.64,9.8 0,9.8 -7.64,9.8 -7.640001,0 -7.640001,-9.8 z m 7.640001,-7.72 q -5.36,0 -5.36,7.72 0,7.72 5.36,7.72 5.36,0 5.36,-7.72 0,-7.72 -5.36,-7.72 z"
         style=""
         id="path11417" />
      <path
         d="m 118.92836,74.31 q 0,-9.8 7.64,-9.8 7.64,0 7.64,9.8 0,9.8 -7.64,9.8 -7.64,0 -7.64,-9.8 z m 7.64,-7.72 q -5.36,0 -5.36,7.72 0,7.72 5.36,7.72 5.36,0 5.36,-7.72 0,-7.72 -5.36,-7.72 z"
         style=""
         id="path11419" />
      <path
         d="m 138.80836,67.27 0,-2 3.88,0 0,-4.84 2.12,-0.4 0,5.24 9.16,0 0,2 -9.16,0 0,9.12 q 0,3.04 0.88,4.4 0.92,1.32 3.24,1.32 0.88,0 2.72,-0.28 1.84,-0.32 2.52,-0.56 l 0.48,1.96 q -0.76,0.28 -2.8,0.6 -2,0.32 -2.92,0.32 -3.6,0 -4.92,-1.88 -1.32,-1.92 -1.32,-5.8 l 0,-9.2 -3.88,0 z"
         style=""
         id="path11421" />
      <path
         d="m 165.60836,71.19 q -3.56,-0.88 -5.24,-2.52 -1.64,-1.68 -1.64,-4.84 0,-3.16 2.16,-4.92 2.2,-1.76 5.64,-1.76 3.44,0 7,1.24 l -0.56,2.04 q -3.32,-1.2 -6.12,-1.2 -2.76,0 -4.24,1.2 -1.48,1.16 -1.48,3.4 0,2.24 1.2,3.4 1.2,1.16 4.76,2.12 3.6,0.92 5.2,2.48 1.6,1.52 1.6,4.96 0,3.4 -2.32,5.4 -2.28,1.96 -5.92,1.96 -2.72,0 -6.88,-1.16 l 0.52,-2.04 q 4.08,1.12 6.56,1.12 2.48,0 4.08,-1.36 1.6,-1.4 1.6,-3.88 0,-2.48 -1.16,-3.64 -1.16,-1.16 -4.76,-2 z"
         style=""
         id="path11423" />
      <path
         d="m 192.88836,65.39 -0.48,2.08 q -2.48,-0.88 -4.6,-0.88 -2.88,0 -4.32,2.04 -1.4,2 -1.4,5.6 0,3.6 1.44,5.72 1.44,2.08 4.28,2.08 1.92,0 4.8,-1.04 l 0.64,2 q -2.92,1.12 -5.4,1.12 -3.92,0 -6,-2.6 -2.08,-2.64 -2.08,-7.32 0,-4.68 2.04,-7.16 2.04,-2.52 6,-2.52 2.52,0 5.08,0.88 z"
         style=""
         id="path11425" />
      <path
         d="m 198.92836,74.31 q 0,-9.8 7.64,-9.8 7.64,0 7.64,9.8 0,9.8 -7.64,9.8 -7.64,0 -7.64,-9.8 z m 7.64,-7.72 q -5.36,0 -5.36,7.72 0,7.72 5.36,7.72 5.36,0 5.36,-7.72 0,-7.72 -5.36,-7.72 z"
         style=""
         id="path11427" />
      <path
         d="m 219.64836,91.43 0,-23.24 -0.36,-3.48 2,-0.24 0.36,2.16 q 2.92,-2.12 5.56,-2.12 3.56,0 5.52,2.6 1.96,2.6 1.96,7.16 0,4.56 -2.16,7.2 -2.16,2.64 -6,2.64 -2.24,0 -4.76,-1.08 l 0,8.4 -2.12,0 z m 12.76,-17.08 q 0,-3.56 -1.36,-5.64 -1.36,-2.12 -3.92,-2.12 -2.52,0 -5.36,2.28 l 0,12 q 0.84,0.4 2.28,0.8 1.48,0.36 2.4,0.36 2.84,0 4.4,-2.08 1.56,-2.08 1.56,-5.6 z"
         style=""
         id="path11429" />
      <path
         d="m 239.24836,74.27 q 0,-4.6 1.88,-7.16 1.92,-2.6 5.56,-2.6 3.64,0 5.4,2.4 1.8,2.4 1.8,6.4 l -0.12,2 -12.24,0 q 0.2,3 1.6,4.88 1.4,1.84 3.84,1.84 2.48,0 5.8,-1.16 l 0.6,2 q -3.24,1.24 -6.08,1.24 -3.92,0 -6,-2.6 -2.04,-2.64 -2.04,-7.24 z m 7.6,-7.72 q -5.04,0 -5.32,6.76 l 10.08,0 q 0,-6.76 -4.76,-6.76 z"
         style=""
         id="path11431" />
    </g>
    <path
       style="opacity:1;fill:#ffffff;fill-opacity:1;fill-rule:nonzero;stroke:#000000;stroke-width:1.638695;stroke-miterlimit:4;stroke-dasharray:none;stroke-opacity:1"
       d="m 282.38809,532.68915 198.8992,0 0,77.6809 -198.8992,0 z"
       id="rect4176" />
    <g
       transform="translate(240.4163,499.01536)"
       style="font-style:normal;font-variant:normal;font-weight:normal;font-stretch:normal;font-size:40px;line-height:125%;font-family:Lekton;-inkscape-font-specification:Lekton;letter-spacing:0px;word-spacing:0px;fill:#000000;fill-opacity:1;stroke:none;stroke-width:1px;stroke-linecap:butt;stroke-linejoin:miter;stroke-opacity:1"
       id="flowRoot4178">
      <path
         d="m 58.488359,59.59 0,-2.04 16.08,0 0,2.04 -6.96,0 0,24.16 -2.2,0 0,-24.16 -6.92,0 z"
         style=""
         id="path11395" />
      <path
         d="m 79.248359,74.27 q 0,-4.6 1.88,-7.16 1.92,-2.6 5.56,-2.6 3.64,0 5.4,2.4 1.8,2.4 1.8,6.4 l -0.12,2 -12.24,0 q 0.2,3 1.6,4.88 1.4,1.84 3.84,1.84 2.48,0 5.8,-1.16 l 0.6,2 q -3.24,1.24 -6.08,1.24 -3.92,0 -6,-2.6 -2.04,-2.64 -2.04,-7.24 z m 7.6,-7.72 q -5.04,0 -5.32,6.76 l 10.08,0 q 0,-6.76 -4.76,-6.76 z"
         style=""
         id="path11397" />
      <path
         d="m 99.968359,64.75 0.120001,1.2 q 2,-1.44 3.08,-1.44 2.64,0 3.64,1.72 2.24,-1.72 3.92,-1.72 2.6,0 3.56,1.6 0.96,1.6 0.96,4.92 l 0,12.72 -2.12,0 0,-12.72 q 0,-2.28 -0.48,-3.36 -0.48,-1.12 -1.84,-1.12 -1.36,0 -3.36,1.28 0.24,1.36 0.24,3.2 l 0,6.64 -2.12,0 0,-6.64 q 0,-2.28 -0.48,-3.36 -0.52,-1.12 -1.88,-1.12 -1.36,0 -3.12,1.28 l 0,15.92 -2.120001,0 0,-19 2,0 z"
         style=""
         id="path11399" />
      <path
         d="m 119.64836,91.43 0,-23.24 -0.36,-3.48 2,-0.24 0.36,2.16 q 2.92,-2.12 5.56,-2.12 3.56,0 5.52,2.6 1.96,2.6 1.96,7.16 0,4.56 -2.16,7.2 -2.16,2.64 -6,2.64 -2.24,0 -4.76,-1.08 l 0,8.4 -2.12,0 z m 12.76,-17.08 q 0,-3.56 -1.36,-5.64 -1.36,-2.12 -3.92,-2.12 -2.52,0 -5.36,2.28 l 0,12 q 0.84,0.4 2.28,0.8 1.48,0.36 2.4,0.36 2.84,0 4.4,-2.08 1.56,-2.08 1.56,-5.6 z"
         style=""
         id="path11401" />
      <path
         d="m 140.36836,83.75 0,-2 6.12,0 0,-22.64 -5.96,0.04 -0.04,-1.96 8.12,-0.04 0,24.6 6.32,0 0,2 -14.56,0 z"
         style=""
         id="path11403" />
      <path
         d="m 165.28836,82.03 q 1.48,0 3.2,-0.92 1.76,-0.96 2.56,-1.76 l 0,-4.76 q -2.64,-0.2 -5.04,-0.2 -2.4,0 -3.6,1.04 -1.2,1 -1.2,2.72 0,3.88 4.08,3.88 z m -0.04,2.08 q -2.92,0 -4.6,-1.48 -1.68,-1.52 -1.68,-4.28 0,-2.76 1.84,-4.28 1.84,-1.56 4.88,-1.56 3.04,0 5.36,0.24 0,-3.56 -0.88,-4.84 -0.88,-1.32 -3.56,-1.32 -2.68,0 -6.32,1.28 l -0.6,-2 q 3.72,-1.36 6.72,-1.36 3.96,0 5.36,1.76 1.4,1.76 1.4,6.16 l 0,8.4 0.32,3.04 -2.04,0.2 -0.4,-2.4 q -0.92,0.8 -2.6,1.64 -1.68,0.8 -3.2,0.8 z"
         style=""
         id="path11405" />
      <path
         d="m 178.80836,67.27 0,-2 3.88,0 0,-4.84 2.12,-0.4 0,5.24 9.16,0 0,2 -9.16,0 0,9.12 q 0,3.04 0.88,4.4 0.92,1.32 3.24,1.32 0.88,0 2.72,-0.28 1.84,-0.32 2.52,-0.56 l 0.48,1.96 q -0.76,0.28 -2.8,0.6 -2,0.32 -2.92,0.32 -3.6,0 -4.92,-1.88 -1.32,-1.92 -1.32,-5.8 l 0,-9.2 -3.88,0 z"
         style=""
         id="path11407" />
      <path
         d="m 199.24836,74.27 q 0,-4.6 1.88,-7.16 1.92,-2.6 5.56,-2.6 3.64,0 5.4,2.4 1.8,2.4 1.8,6.4 l -0.12,2 -12.24,0 q 0.2,3 1.6,4.88 1.4,1.84 3.84,1.84 2.48,0 5.8,-1.16 l 0.6,2 q -3.24,1.24 -6.08,1.24 -3.92,0 -6,-2.6 -2.04,-2.64 -2.04,-7.24 z m 7.6,-7.72 q -5.04,0 -5.32,6.76 l 10.08,0 q 0,-6.76 -4.76,-6.76 z"
         style=""
         id="path11409" />
    </g>
    <path
       style="fill:none;fill-rule:evenodd;stroke:#000000;stroke-width:1px;stroke-linecap:butt;stroke-linejoin:miter;stroke-opacity:1;marker-start:url(#Arrow1Lstart);marker-end:url(#Arrow1Lend)"
       d="M 179.80715,329.09298 319.2082,238.17925"
       id="path4215"
       inkscape:connector-curvature="0" />
    <path
       inkscape:connector-curvature="0"
       id="path4529"
       d="M 432.34529,329.09298 355.5737,240.19955"
       style="fill:none;fill-rule:evenodd;stroke:#000000;stroke-width:1px;stroke-linecap:butt;stroke-linejoin:miter;stroke-opacity:1;marker-start:url(#marker4531);marker-end:url(#marker4559)"
       sodipodi:nodetypes="cc" />
    <path
       style="fill:none;fill-rule:evenodd;stroke:#000000;stroke-width:1px;stroke-linecap:butt;stroke-linejoin:miter;stroke-opacity:1;marker-start:url(#marker4955);marker-end:url(#marker4995)"
       d="M 694.98495,331.11328 389.91888,238.17925"
       id="path4953"
       inkscape:connector-curvature="0"
       sodipodi:nodetypes="cc" />
    <path
       inkscape:connector-curvature="0"
       id="path5245"
       d="M 333.35033,535.1641 177.78684,413.94579"
       style="fill:none;fill-rule:evenodd;stroke:#000000;stroke-width:1px;stroke-linecap:butt;stroke-linejoin:miter;stroke-opacity:1;marker-start:url(#marker5247);marker-end:url(#marker5299)"
       sodipodi:nodetypes="cc" />
    <path
       style="fill:none;fill-rule:evenodd;stroke:#000000;stroke-width:1px;stroke-linecap:butt;stroke-linejoin:miter;stroke-opacity:1;marker-start:url(#marker5719);marker-end:url(#marker5783)"
       d="m 391.93918,529.10318 16.16244,-60.60915"
       id="path5717"
       inkscape:connector-curvature="0"
       sodipodi:nodetypes="cc" />
    <path
       inkscape:connector-curvature="0"
       id="path6045"
       d="M 476.79199,527.08288 697.00525,413.94579"
       style="fill:none;fill-rule:evenodd;stroke:#000000;stroke-width:1px;stroke-linecap:butt;stroke-linejoin:miter;stroke-opacity:1;marker-start:url(#marker6047);marker-end:url(#marker6123)"
       sodipodi:nodetypes="cc" />
    <path
       sodipodi:nodetypes="cc"
       style="fill:none;fill-rule:evenodd;stroke:#000000;stroke-width:1;stroke-linecap:butt;stroke-linejoin:miter;stroke-miterlimit:4;stroke-dasharray:4, 8;stroke-dashoffset:0;stroke-opacity:1;marker-end:url(#marker8863)"
       d="m 311.12698,387.68183 50.50762,2.0203"
       id="path8773"
       inkscape:connector-curvature="0" />
    <path
       inkscape:connector-curvature="0"
       id="path9245"
       d="m 535.38084,385.66152 50.50763,-2.02031"
       style="fill:none;fill-rule:evenodd;stroke:#000000;stroke-width:1;stroke-linecap:butt;stroke-linejoin:miter;stroke-miterlimit:4;stroke-dasharray:4, 8;stroke-dashoffset:0;stroke-opacity:1;marker-end:url(#marker9247)"
       sodipodi:nodetypes="cc" />
  </g>
</svg>
